<?xml version="1.0" encoding="UTF-8" standalone="no"?>
<!-- Created with Inkscape (http://www.inkscape.org/) -->

<svg
   xmlns:dc="http://purl.org/dc/elements/1.1/"
   xmlns:cc="http://creativecommons.org/ns#"
   xmlns:rdf="http://www.w3.org/1999/02/22-rdf-syntax-ns#"
   xmlns:svg="http://www.w3.org/2000/svg"
   xmlns="http://www.w3.org/2000/svg"
   xmlns:sodipodi="http://sodipodi.sourceforge.net/DTD/sodipodi-0.dtd"
   xmlns:inkscape="http://www.inkscape.org/namespaces/inkscape"
   version="1.1"
   width="230"
   height="151.95"
   id="svg4555"
   inkscape:version="0.48.4 r9939"
   sodipodi:docname="srf.svg">
  <metadata
     id="metadata10">
    <rdf:RDF>
      <cc:Work
         rdf:about="">
        <dc:format>image/svg+xml</dc:format>
        <dc:type
           rdf:resource="http://purl.org/dc/dcmitype/StillImage" />
      </cc:Work>
    </rdf:RDF>
  </metadata>
  <sodipodi:namedview
     pagecolor="#ffffff"
     bordercolor="#666666"
     borderopacity="1"
     objecttolerance="10"
     gridtolerance="10"
     guidetolerance="10"
     inkscape:pageopacity="0"
     inkscape:pageshadow="2"
     inkscape:window-width="1920"
     inkscape:window-height="1027"
     id="namedview8"
     showgrid="false"
     inkscape:zoom="2.263291"
     inkscape:cx="301.16843"
     inkscape:cy="75.976128"
     inkscape:window-x="-8"
     inkscape:window-y="-8"
     inkscape:window-maximized="1"
     inkscape:current-layer="layer1" />
  <defs
     id="defs4557" />
  <g
     transform="translate(-69.237114,-399.24546)"
     id="layer1">
    <path
       d="m 70.237114,550.19545 228.324536,0 0,-149.95225 -228.324536,0 0,149.95225 z"
       id="path688"
       style="fill:#ae001d;fill-opacity:1;fill-rule:nonzero;stroke:none"
       inkscape:connector-curvature="0" />
    <path
       d="m 54.96875,39.6875 c -18.23362,0 -27.0625,7.93862 -27.0625,20.53125 0,11.38555 6.16271,18.14949 16.875,20.90625 l 8.1875,2.09375 c 6.74448,1.76082 9.625,3.74262 9.625,7.9375 0,6.19473 -4.20848,7.3125 -14.375,7.3125 -4.63709,0 -12.70802,-0.67918 -15.46875,-0.90625 -2.876269,-0.21114 -3.655538,0.14038 -4.09375,2.5625 l -1.3125,8.5 c -0.227074,1.66521 0.557883,2.31613 2,2.53125 3.198952,0.43821 11.25772,1 19.09375,1 17.5763,0 30.40625,-5.74445 30.40625,-22.09375 0,-9.62075 -4.228,-16.80582 -18.8125,-20.5625 L 51.875,67.40625 c -5.51749,-1.42219 -8.0625,-3.20189 -8.0625,-7.28125 0,-5.75253 5.29572,-6.84375 10.375,-6.84375 6.86001,0 13.80176,0.56613 16.5625,0.78125 2.88025,0.21512 3.65155,-0.13639 4.09375,-2.5625 l 1.34375,-8.28125 c 0.21911,-1.65326 -0.56983,-2.31215 -2,-2.53125 -3.2109,-0.44618 -10.27125,-1 -19.21875,-1 z m 36.1875,0.75 c -2.21497,0 -2.875,0.78504 -2.875,3 l 0,65.09375 c 0,2.19903 0.66003,2.96875 2.875,2.96875 l 10.15625,0 c 2.21098,0 2.875,-0.76972 2.875,-2.96875 l 0,-54.9375 10.5,0 c 6.62896,0 9.8125,2.43027 9.8125,8.625 0,5.63302 -2.51689,7.40049 -5.0625,8.5 -3.19895,1.33057 -4.32055,-0.10114 -5.3125,4.09375 l -1.09375,4.65625 c -0.33464,1.3226 -0.46875,1.96007 -0.46875,2.40625 0,1.09952 0.34817,1.98591 1.125,3.3125 l 13.15625,23.65625 c 1.10748,1.87635 1.97581,2.65625 4.625,2.65625 l 12.0625,0 c 1.54171,0 3.42902,-0.99723 1.65625,-3.75 L 129.03125,81 c 5.4179,-3.42602 11.5,-8.27974 11.5,-19 0,-13.81166 -7.72745,-21.5625 -24.75,-21.5625 l -24.625,0 z m 67,0 c -2.21098,0 -2.875,0.78503 -2.875,3 l 0,65.09375 c 0,2.20301 0.66402,2.96875 2.875,2.96875 l 10.1875,0 c 2.20301,0 2.84375,-0.76574 2.84375,-2.96875 l 0,-25.65625 26.3125,0 c 2.207,0 2.875,-0.76573 2.875,-2.96875 l 0,-7.75 c 0,-2.21098 -0.668,-2.96875 -2.875,-2.96875 l -26.3125,0 0,-15.03125 28.96875,0 c 2.21098,0 2.875,-0.78902 2.875,-3 l 0,-7.71875 c 0,-2.21497 -0.66402,-3 -2.875,-3 l -42,0 z"
       transform="translate(69.237114,399.2432)"
       id="path692"
       style="fill:#ffffff;fill-opacity:1;fill-rule:nonzero;stroke:none"
       inkscape:connector-curvature="0" />
  </g>
</svg>
